<svg width="277" height="51" viewBox="0 0 277 51" fill="none" xmlns="http://www.w3.org/2000/svg">
<path d="M47.1723 28.595C47.1723 41.891 37.8475 50.755 24.1347 50.755C9.32475 50.201 0 40.783 0 25.825C0 10.867 9.32475 0.89505 24.1347 0.89505C35.6535 0.89505 44.4297 6.98905 46.0752 16.407H38.396C36.7505 10.867 30.7168 6.98905 24.1347 6.98905C14.2614 6.98905 7.67921 14.191 7.67921 25.271C7.67921 36.351 14.2614 43.553 24.6832 43.553C33.4594 43.553 40.0416 38.013 40.5901 29.703H20.295V24.163H46.6238C47.1723 25.825 47.1723 26.933 47.1723 28.595Z" fill="#FE142F"/>
<path d="M65.2737 29.7031L77.8895 28.5951V26.9331C77.8895 22.5011 74.5984 20.2851 69.6618 20.2851C64.7252 20.2851 61.4341 23.0551 61.9826 26.9331H54.8519C54.8519 19.1771 60.3371 14.7451 69.6618 14.7451C78.438 14.7451 83.9232 19.1771 83.9232 27.4871V50.201H77.8895L77.341 43.553C75.6955 47.9851 70.7588 50.7551 64.7252 50.7551C58.143 50.7551 53.7549 46.877 53.7549 40.7831C54.3034 34.1351 58.143 30.8111 65.2737 29.7031ZM67.4678 44.6611C73.5014 44.6611 77.8895 40.7831 77.8895 34.6891V32.4731L66.9192 34.1351C63.0796 34.6891 61.4341 36.9051 61.4341 39.6751C60.8856 42.9991 63.6281 44.6611 67.4678 44.6611Z" fill="#FE142F"/>
<path d="M144.26 26.9331V49.647H137.129V27.4871C137.129 22.5011 134.386 20.2851 130.547 20.2851C125.61 20.2851 122.867 24.1631 122.867 29.7031V49.093H116.285V28.5951C116.285 23.0551 114.091 20.8391 109.703 20.8391C104.766 20.8391 102.024 24.1631 102.024 29.7031V49.647H95.4417V15.2991H101.475L102.024 19.7311C104.218 16.4071 107.509 14.7451 111.897 14.7451C116.834 14.7451 120.673 16.9611 121.77 21.3931C123.416 17.5151 127.804 14.7451 132.741 14.7451C139.871 14.7451 144.26 19.1771 144.26 26.9331Z" fill="#FE142F"/>
<path d="M186.495 39.675C184.849 46.323 178.267 50.755 170.039 50.755C159.069 50.755 151.938 43.553 151.938 33.027C151.938 22.501 159.069 15.299 169.491 15.299C179.364 15.299 185.946 21.393 185.946 30.811C185.946 31.919 185.946 32.473 185.398 33.581H159.069V34.135C159.069 40.783 163.457 44.661 170.039 44.661C174.976 44.661 178.267 42.445 179.364 39.675H186.495ZM159.069 28.595H178.816C178.816 24.163 174.976 20.285 169.491 20.285C164.006 20.285 160.166 23.609 159.069 28.595Z" fill="#FE142F"/>
<path d="M236.41 8.65105C232.022 3.66505 225.44 0.89505 218.857 0.89505C205.145 0.89505 194.174 11.975 194.174 25.825C194.174 39.675 205.145 50.755 218.857 50.755C226.537 50.755 233.119 47.431 237.507 41.891L218.857 25.825L236.41 8.65105Z" fill="#FE142F"/>
<path d="M246.283 15.2991H252.317L252.865 20.8391C255.059 16.9611 259.448 14.7451 264.384 14.7451C272.612 14.7451 277 19.7311 277 28.0411V49.647H269.869V29.1491C269.869 23.6091 266.578 20.8391 262.19 20.8391C256.705 20.8391 252.865 24.7171 252.865 31.3651V49.647H246.283V15.2991Z" fill="#FE142F"/>
</svg>